<svg xmlns="http://www.w3.org/2000/svg" viewBox="0 0 286 150" width="286" height="150"><path d="M35.3 110.0V48.455H16.38V110.0ZM44.375 53.185 43.385 39.215H7.305L8.24 53.185ZM54.385 12.265Q35.135000000000005 12.265 25.840000000000003 18.975Q16.545 25.685000000000002 16.545 38.885000000000005V41.965H35.025V39.269999999999996Q35.025 35.42 37.114999999999995 32.8075Q39.205 30.194999999999993 43.7975 28.874999999999993Q48.39 27.554999999999993 55.925 27.554999999999993Q66.925 27.554999999999993 78.42 29.8925Q89.915 32.230000000000004 101.19 36.959999999999994L101.575 36.849999999999994L99.32000000000001 20.955Q89.97 17.049999999999997 78.3925 14.657499999999999Q66.815 12.265 54.385 12.265ZM111.2 48.455H92.28V110.0H111.2ZM89.64 53.185H120.275L119.285 39.215H88.65ZM39.865 53.185H114.775L113.785 39.215H38.93ZM85.46000000000001 60.445H44.375V75.24000000000001H55.980000000000004L61.864999999999995 74.965L85.46000000000001 74.91ZM72.535 105.38Q78.53 105.38 82.4075 103.9225Q86.285 102.465 88.485 99.88Q90.685 97.295 91.62 93.94H93.545L92.61 82.61Q91.84 86.075 88.925 87.9175Q86.00999999999999 89.76 80.62 89.76Q75.39500000000001 89.815 73.03 88.11Q70.66499999999999 86.405 70.66499999999999 82.83V82.33500000000001Q70.66499999999999 79.97 71.6275 78.43Q72.59 76.89 74.5975 76.0925Q76.60499999999999 75.295 79.74000000000001 75.185L85.46000000000001 74.91V71.28L59.775 71.225L59.83 75.68Q55.43 76.89 53.3675 80.1075Q51.305 83.325 51.305 87.89V88.55Q51.305 96.69 56.86 101.035Q62.415 105.38 72.535 105.38ZM183.085 48.455H164.16500000000002V110.0H183.085ZM161.525 53.185H192.16000000000003L191.22500000000002 39.215H160.59ZM186.825 53.185 185.835 39.215H114.83000000000001L115.765 53.185ZM171.425 72.6H133.365V87.56H171.425ZM146.4 48.18H127.64500000000001V80.795H146.4ZM129.13 102.19H146.4V73.64500000000001H127.7L120.33000000000001 78.155Q120.66000000000001 82.885 121.8425 87.2025Q123.025 91.52 124.89500000000001 95.2875Q126.765 99.055 129.13 102.19ZM269.545 48.455H250.625V110.0H269.545ZM247.985 53.185H278.62L277.63 39.215H246.995ZM187.65 53.185H273.12L272.13 39.215H186.66ZM215.7 61.49Q205.03 61.49 199.14499999999998 67.1825Q193.26 72.875 193.26 83.545Q193.26 91.245 195.7625 97.3775Q198.265 103.51 202.555 110.0H223.45499999999998V109.725Q218.725 102.41 215.7275 96.5525Q212.73 90.695 212.73 84.7Q212.73 81.015 214.1325 79.0075Q215.535 77.0 218.34 77.0Q221.14499999999998 77.0 222.29999999999998 78.705Q223.45499999999998 80.41 223.62 84.37L224.115 95.975H241.0L241.44 84.37Q241.605 80.245 242.925 78.65Q244.245 77.055 246.555 77.055Q248.48 77.055 249.5525 77.9625Q250.625 78.87 251.12 80.63L252.055 63.964999999999996Q250.845 62.755 249.0025 62.1775Q247.16 61.6 244.63 61.6Q240.065 61.6 236.7375 63.965Q233.41 66.33 232.31 70.72999999999999H231.815Q230.385 66.275 226.535 63.88250000000001Q222.685 61.49 215.7 61.49Z" fill="#E8A62A"/></svg>